<svg width="188" height="33" viewBox="0 0 188 33" fill="none" xmlns="http://www.w3.org/2000/svg">
<g clip-path="url(#clip0_860_2126)">
<path fill-rule="evenodd" clip-rule="evenodd" d="M29.4194 0H0V6.72874H10.8535V32.4593H18.5658V6.72874H29.4194V0Z" fill="#151D34"/>
<path fill-rule="evenodd" clip-rule="evenodd" d="M42.4855 22.3422C42.4855 23.5867 42.1576 24.5685 41.5036 25.2894C40.8479 25.9778 39.9639 26.3211 38.8516 26.3211C38.0655 26.3211 37.3943 26.158 36.8381 25.8301C36.282 25.5023 35.8563 25.044 35.5611 24.4552C35.2984 23.8665 35.168 23.161 35.168 22.3439V8.59119H27.6531V22.4417C27.6531 24.505 28.1285 26.3382 29.0778 27.9432C30.027 29.5155 31.3367 30.7583 33.0069 31.6766C34.7097 32.5606 36.6579 33.0035 38.8516 33.0035C41.0453 33.0035 42.9764 32.5606 44.6466 31.6766C46.3167 30.76 47.6264 29.5155 48.5757 27.9432C49.5249 26.3382 50.0004 24.4895 50.0004 22.3937V8.59119H42.4855V22.3439V22.3422Z" fill="#151D34"/>
<path fill-rule="evenodd" clip-rule="evenodd" d="M92.5082 9.6708C90.5428 8.59112 88.3165 8.05042 85.8293 8.05042C83.342 8.05042 81.114 8.60657 79.1503 9.72058C77.1849 10.8003 75.6297 12.2748 74.4848 14.1406C73.3382 16.0065 72.7666 18.1195 72.7666 20.4763C72.7666 22.833 73.3399 24.9615 74.4848 26.8617C75.6315 28.7602 77.1866 30.2673 79.1503 31.3796C81.1483 32.4593 83.3747 33 85.8293 33C88.2839 33 90.5445 32.4593 92.5082 31.3796C94.4736 30.2673 96.0288 28.7602 97.1737 26.8617C98.3204 24.9632 98.892 22.8348 98.892 20.4763C98.892 18.1178 98.3186 16.0065 97.1737 14.1406C96.0271 12.2421 94.4719 10.7522 92.5082 9.6708V9.6708ZM90.5428 23.4716C90.1171 24.323 89.4958 24.9941 88.677 25.4851C87.8582 25.9434 86.909 26.1734 85.8276 26.1734C84.7462 26.1734 83.8467 25.9434 83.0279 25.4851C82.2092 24.9941 81.5706 24.323 81.1123 23.4716C80.654 22.5876 80.424 21.6057 80.424 20.5243C80.424 19.4429 80.654 18.4285 81.1123 17.5771C81.5706 16.7257 82.2092 16.0717 83.0279 15.6117C83.8467 15.1207 84.7805 14.8753 85.8276 14.8753C86.8746 14.8753 87.841 15.1207 88.6272 15.6117C89.446 16.07 90.0845 16.7257 90.5428 17.5771C91.0011 18.3959 91.2311 19.3622 91.2311 20.4745C91.2311 21.5869 91.0011 22.5859 90.5428 23.4699V23.4716Z" fill="#151D34"/>
<path fill-rule="evenodd" clip-rule="evenodd" d="M185.923 13.7973C184.907 11.9967 183.499 10.5891 181.698 9.57296C179.898 8.5585 177.819 8.05042 175.461 8.05042C173.102 8.05042 170.86 8.59112 168.929 9.6708C166.996 10.7505 165.458 12.2404 164.312 14.1406C163.199 16.0065 162.642 18.1349 162.642 20.526C162.642 22.9172 163.215 25.0611 164.36 26.9595C165.506 28.858 167.077 30.3479 169.075 31.4294C171.106 32.4764 173.414 33.0017 176 33.0017C177.998 33.0017 179.831 32.6584 181.501 31.9701C183.169 31.2817 184.594 30.2501 185.773 28.8752L181.647 24.7487C180.928 25.5674 180.092 26.1888 179.142 26.6145C178.193 27.0076 177.129 27.2033 175.95 27.2033C174.673 27.2033 173.56 26.9407 172.611 26.4171C171.695 25.861 170.974 25.0903 170.45 24.1084C170.285 23.7685 170.151 23.4046 170.041 23.0201L187.148 22.9789C187.279 22.3576 187.361 21.8169 187.394 21.3586C187.459 20.8676 187.492 20.4093 187.492 19.9836C187.492 17.6595 186.968 15.5962 185.921 13.7956L185.923 13.7973ZM170.047 17.8637C170.144 17.5204 170.261 17.1943 170.404 16.8905C170.895 15.9086 171.566 15.1551 172.417 14.6315C173.301 14.0754 174.333 13.7973 175.512 13.7973C176.624 13.7973 177.558 14.0428 178.312 14.5337C179.098 14.992 179.687 15.6803 180.08 16.5969C180.244 16.966 180.375 17.3797 180.476 17.8346L170.048 17.8637H170.047Z" fill="#151D34"/>
<path fill-rule="evenodd" clip-rule="evenodd" d="M141.278 19.0928L129.027 0.0102539H123.526V32.4284H131.188V15.4469L138.701 27.2205H143.81L151.325 15.5121V32.4284H159.035V0.0102539H153.486L141.278 19.0928Z" fill="#151D34"/>
<path fill-rule="evenodd" clip-rule="evenodd" d="M58.1057 8.66492H58.104H52.7039V14.9748H58.1057V32.4592H65.6206V14.9748H71.0242V8.66492H65.6206H58.1057Z" fill="#151D34"/>
<path fill-rule="evenodd" clip-rule="evenodd" d="M66.5922 0.0892588C66.5922 0.060078 66.5922 0.0308973 66.5922 0H58.1057V8.66497C62.8004 8.61691 66.5939 4.79594 66.5939 0.0892588H66.5922Z" fill="#A2D3FF"/>
<path fill-rule="evenodd" clip-rule="evenodd" d="M109.514 8.5603H102.133V32.4284H109.514V19.2113V17.481V10.5188V8.5603Z" fill="#151D34"/>
<path fill-rule="evenodd" clip-rule="evenodd" d="M109.514 17.1582C109.514 17.1874 109.514 17.2183 109.514 17.2475H118V8.58252C113.305 8.63058 109.514 12.4515 109.514 17.1582Z" fill="#1FBE72"/>
</g>
<defs>
<clipPath id="clip0_860_2126">
<rect width="187.493" height="33" fill="white"/>
</clipPath>
</defs>
</svg>
